<svg id="Outline_Old_Icons" data-name="Outline Old Icons" xmlns="http://www.w3.org/2000/svg" viewBox="0 0 18 24">
<title>lock-full</title>

<defs>
    <linearGradient id="gradient" x1="0%" y1="100%" x2="100%" y2="0%" gradientUnits="userSpaceOnUse">
        <stop offset="20%" style="stop-color:#f1dc91;stop-opacity:1"/>
        <stop offset="90%" style="stop-color:#e0ab42;stop-opacity:1"/>
    </linearGradient>
</defs>

<path fill="url(#gradient)" d="M17.5,9H.5a.5.5,0,0,0-.5.5v14a.5.5,0,0,0,.5.5h17a.5.5,0,0,0,.5-.5V9.5A.5.5,0,0,0,17.5,9ZM8,15a1,1,0,1,1,2,0,1,1,0,0,1-.5.85V18.5a.5.5,0,0,1-1,0V15.85A1,1,0,0,1,8,15Z"/>
<path d="M3.5,6a5.5,5.5,0,0,1,11,0V9.5H3.5Z" stroke="url(#gradient)" style="fill:none;stroke-linejoin:round"/>

</svg>
